<svg width="360" height="360" viewBox="0 0 360 360" fill="none" xmlns="http://www.w3.org/2000/svg">
<path fill-rule="evenodd" clip-rule="evenodd" d="M179.5 55C248.259 55 304 110.741 304 179.5C304 248.259 248.259 304 179.5 304C110.741 304 55 248.259 55 179.5C55 110.741 110.741 55 179.5 55ZM179.5 88C128.966 88 88 128.966 88 179.5C88 230.034 128.966 271 179.5 271C230.034 271 271 230.034 271 179.5C271 128.966 230.034 88 179.5 88Z" fill="#A1A1A1" fill-opacity="0.301961"/>
<path d="M179.5 55C199.147 55 218.516 59.6497 236.021 68.5693C253.527 77.489 268.674 90.4254 280.223 106.32C291.771 122.215 299.393 140.618 302.467 160.023C305.54 179.429 303.978 199.287 297.906 217.973L266.545 207.782C269.437 198.876 271 189.37 271 179.5C271 128.966 230.034 88 179.5 88V55Z" fill="#FF6D1F"/>
</svg>
