<svg width="360" height="360" viewBox="0 0 360 360" fill="none" xmlns="http://www.w3.org/2000/svg">
<path fill-rule="evenodd" clip-rule="evenodd" d="M180 55C249.036 55 305 110.964 305 180C305 249.036 249.036 305 180 305C110.964 305 55 249.036 55 180C55 110.964 110.964 55 180 55ZM180.001 88.333C129.375 88.333 88.334 129.374 88.334 180C88.334 230.626 129.375 271.667 180.001 271.667C230.627 271.667 271.667 230.626 271.667 180C271.667 129.374 230.627 88.3332 180.001 88.333Z" fill="#A1A1A1" fill-opacity="0.302"/>
<path d="M180 55C193.117 55 206.152 57.0648 218.627 61.1182L208.334 92.7959C199.412 89.899 189.889 88.333 180.001 88.333L180 55Z" fill="#FF6D1F"/>
</svg>
