<svg width="360" height="360" viewBox="0 0 360 360" fill="none" xmlns="http://www.w3.org/2000/svg">
<path fill-rule="evenodd" clip-rule="evenodd" d="M179.5 55C248.259 55 304 110.741 304 179.5C304 248.259 248.259 304 179.5 304C110.741 304 55 248.259 55 179.5C55 110.741 110.741 55 179.5 55ZM179.5 88C128.966 88 88 128.966 88 179.5C88 230.034 128.966 271 179.5 271C230.034 271 271 230.034 271 179.5C271 128.966 230.034 88 179.5 88Z" fill="#A1A1A1" fill-opacity="0.301961"/>
<path d="M179.5 55C209.143 55 237.815 65.5772 260.356 84.8291C282.897 104.081 297.83 130.745 302.467 160.023C307.105 189.302 301.143 219.275 285.654 244.551C270.165 269.826 246.165 288.746 217.972 297.906C189.779 307.067 159.243 305.868 131.856 294.523C104.469 283.179 82.028 262.434 68.5699 236.021C55.112 209.609 51.5198 179.26 58.4401 150.436C65.3604 121.611 82.3387 96.2015 106.321 78.7773L125.713 105.47C102.857 122.105 87.9996 149.067 87.9996 179.5C87.9996 230.034 128.966 271 179.5 271C230.034 271 271 230.034 271 179.5C271 128.966 230.034 88 179.5 88V55Z" fill="#FF6D1F"/>
</svg>
