<svg width="360" height="360" viewBox="0 0 360 360" fill="none" xmlns="http://www.w3.org/2000/svg">
<path d="M304 179.5C304 248.259 248.259 304 179.5 304C110.741 304 55 248.259 55 179.5C55 110.741 110.741 55 179.5 55C248.259 55 304 110.741 304 179.5Z" fill="#A1A1A1" fill-opacity="0.301961"/>
<path d="M179.5 55C202.461 55 224.974 61.3494 244.551 73.3463C264.128 85.3432 280.006 102.52 290.43 122.978C300.854 143.436 305.418 166.378 303.616 189.268C301.815 212.158 293.719 234.104 280.223 252.679C266.727 271.255 248.357 285.736 227.144 294.523C205.931 303.31 182.702 306.059 160.024 302.467C137.346 298.875 116.103 289.082 98.6437 274.171C81.1844 259.259 68.1887 239.809 61.0935 217.973L179.5 179.5L179.5 55Z" fill="#FF6D1F"/>
<path d="M179.5 88C230.034 88 271 128.966 271 179.5C271 230.034 230.034 271 179.5 271C128.966 271 88 230.034 88 179.5C88 128.966 128.966 88 179.5 88Z" fill="#151515"/>
<path d="M179.5 88C230.034 88 271 128.966 271 179.5C271 230.034 230.034 271 179.5 271C128.966 271 88 230.034 88 179.5C88 128.966 128.966 88 179.5 88Z" stroke="#151515"/>
</svg>
