<svg width="360" height="360" viewBox="0 0 360 360" fill="none" xmlns="http://www.w3.org/2000/svg">
<path fill-rule="evenodd" clip-rule="evenodd" d="M179.5 55C248.259 55 304 110.741 304 179.5C304 248.259 248.259 304 179.5 304C110.741 304 55 248.259 55 179.5C55 110.741 110.741 55 179.5 55ZM179.5 88C128.966 88 88 128.966 88 179.5C88 230.034 128.966 271 179.5 271C230.034 271 271 230.034 271 179.5C271 128.966 230.034 88 179.5 88Z" fill="#A1A1A1" fill-opacity="0.301961"/>
<path d="M179.5 55C195.85 55 212.039 58.2199 227.145 64.4766C242.249 70.7333 255.974 79.904 267.535 91.4648C279.096 103.026 288.267 116.751 294.523 131.855C300.78 146.961 304 163.15 304 179.5C304 195.85 300.78 212.039 294.523 227.145C288.267 242.249 279.096 255.974 267.535 267.535C255.974 279.096 242.249 288.267 227.145 294.523C212.04 300.78 195.85 304 179.5 304V271C230.034 271 271 230.034 271 179.5C271 128.966 230.034 88 179.5 88V55Z" fill="#FF6D1F"/>
</svg>
