<svg width="360" height="360" viewBox="0 0 360 360" fill="none" xmlns="http://www.w3.org/2000/svg">
<path fill-rule="evenodd" clip-rule="evenodd" d="M179.5 55C248.259 55 304 110.741 304 179.5C304 248.259 248.259 304 179.5 304C110.741 304 55 248.259 55 179.5C55 110.741 110.741 55 179.5 55ZM179.5 88C128.966 88 88 128.966 88 179.5C88 230.034 128.966 271 179.5 271C230.034 271 271 230.034 271 179.5C271 128.966 230.034 88 179.5 88Z" fill="#A1A1A1" fill-opacity="0.301961"/>
<path d="M179.5 55C202.461 55 224.974 61.3498 244.551 73.3467C264.128 85.3436 280.007 102.52 290.431 122.979C300.854 143.436 305.418 166.379 303.616 189.269C301.815 212.158 293.718 234.104 280.223 252.68C266.727 271.255 248.357 285.737 227.145 294.523C205.932 303.31 182.701 306.059 160.023 302.467C137.346 298.875 116.103 289.082 98.6436 274.171C81.1842 259.259 68.189 239.809 61.0938 217.973L92.4541 207.782C104.368 244.474 138.836 271 179.5 271C230.034 271 271 230.034 271 179.5C271 128.966 230.034 88 179.5 88V55Z" fill="#FF6D1F"/>
</svg>
