<svg width="360" height="360" viewBox="0 0 360 360" fill="none" xmlns="http://www.w3.org/2000/svg">
<path d="M304 179.5C304 248.259 248.259 304 179.5 304C110.741 304 55 248.259 55 179.5C55 110.741 110.741 55 179.5 55C248.259 55 304 110.741 304 179.5Z" fill="#A1A1A1" fill-opacity="0.301961"/>
<path d="M179.5 55C209.144 55 237.815 65.5773 260.356 84.8295C282.898 104.082 297.83 130.745 302.467 160.024C307.105 189.303 301.143 219.276 285.654 244.551C270.165 269.827 246.166 288.746 217.973 297.907C189.78 307.067 159.243 305.867 131.856 294.523C104.469 283.179 82.0277 262.435 68.5697 236.022C55.1117 209.609 51.5197 179.261 58.44 150.436C65.3602 121.611 82.3384 96.2016 106.321 78.7774L179.5 179.5L179.5 55Z" fill="#FF6D1F"/>
<path d="M179.5 88C230.034 88 271 128.966 271 179.5C271 230.034 230.034 271 179.5 271C128.966 271 88 230.034 88 179.5C88 128.966 128.966 88 179.5 88Z" fill="#151515"/>
<path d="M179.5 88C230.034 88 271 128.966 271 179.5C271 230.034 230.034 271 179.5 271C128.966 271 88 230.034 88 179.5C88 128.966 128.966 88 179.5 88Z" stroke="#151515"/>
</svg>
