<svg width="360" height="360" viewBox="0 0 360 360" fill="none" xmlns="http://www.w3.org/2000/svg">
<path d="M304 179.5C304 248.259 248.259 304 179.5 304C110.741 304 55 248.259 55 179.5C55 110.741 110.741 55 179.5 55C248.259 55 304 110.741 304 179.5Z" fill="#A1A1A1" fill-opacity="0.301961"/>
<path d="M179.5 55C205.792 55 231.409 63.3234 252.679 78.7774C273.95 94.2313 289.782 116.022 297.907 141.027C306.031 166.032 306.031 192.968 297.907 217.973C289.782 242.978 273.95 264.769 252.679 280.223C231.409 295.677 205.792 304 179.5 304C153.208 304 127.591 295.677 106.321 280.223C85.0502 264.769 69.2181 242.978 61.0935 217.973C52.9688 192.968 52.9688 166.032 61.0935 141.027L179.5 179.5L179.5 55Z" fill="#FF6D1F"/>
<path d="M179.5 88C230.034 88 271 128.966 271 179.5C271 230.034 230.034 271 179.5 271C128.966 271 88 230.034 88 179.5C88 128.966 128.966 88 179.5 88Z" fill="#151515"/>
<path d="M179.5 88C230.034 88 271 128.966 271 179.5C271 230.034 230.034 271 179.5 271C128.966 271 88 230.034 88 179.5C88 128.966 128.966 88 179.5 88Z" stroke="#151515"/>
</svg>
