<svg width="360" height="360" viewBox="0 0 360 360" fill="none" xmlns="http://www.w3.org/2000/svg">
<path d="M304 179.5C304 248.259 248.259 304 179.5 304C110.741 304 55 248.259 55 179.5C55 110.741 110.741 55 179.5 55C248.259 55 304 110.741 304 179.5Z" fill="#A1A1A1" fill-opacity="0.301961"/>
<path d="M179.5 55C195.85 55 212.039 58.2203 227.144 64.477C242.249 70.7337 255.974 79.9043 267.535 91.4652C279.096 103.026 288.266 116.751 294.523 131.856C300.78 146.961 304 163.15 304 179.5C304 195.85 300.78 212.039 294.523 227.144C288.266 242.249 279.096 255.974 267.535 267.535C255.974 279.096 242.249 288.266 227.144 294.523C212.039 300.78 195.85 304 179.5 304L179.5 179.5L179.5 55Z" fill="#FF6D1F"/>
<path d="M179.5 88C230.034 88 271 128.966 271 179.5C271 230.034 230.034 271 179.5 271C128.966 271 88 230.034 88 179.5C88 128.966 128.966 88 179.5 88Z" fill="#151515"/>
<path d="M179.5 88C230.034 88 271 128.966 271 179.5C271 230.034 230.034 271 179.5 271C128.966 271 88 230.034 88 179.5C88 128.966 128.966 88 179.5 88Z" stroke="#151515"/>
</svg>
