<svg width="360" height="360" viewBox="0 0 360 360" fill="none" xmlns="http://www.w3.org/2000/svg">
<g clip-path="url(#clip0_121_182)">
<path d="M258.618 146.606C251.572 127.811 241.298 110.404 228.264 95.1771C205.707 68.9429 176.047 52 152.7 52C151.312 52.001 149.942 52.3212 148.696 52.9359C147.45 53.5507 146.36 54.4437 145.511 55.5467C144.661 56.6497 144.074 57.9334 143.794 59.2996C143.514 60.6657 143.549 62.0781 143.896 63.4286C151.784 93.7143 135.433 118.897 118.126 145.554C103.788 167.634 89 190.44 89 216.571C89 266.983 129.825 308 180 308C230.175 308 271 266.983 271 216.571C271 191.829 266.837 168.291 258.618 146.606ZM198.388 272.966C192.512 279.251 185.147 280.571 180 280.571C174.853 280.571 167.488 279.251 161.612 272.966C155.737 266.68 152.7 256.709 152.7 244C152.7 229.634 157.716 218.697 162.562 208.126C165.377 201.989 168.25 195.743 169.956 189.057C170.137 188.33 170.493 187.659 170.994 187.102C171.494 186.546 172.123 186.122 172.824 185.867C173.526 185.613 174.28 185.535 175.018 185.642C175.757 185.749 176.458 186.037 177.06 186.48C182.261 190.524 186.887 195.265 190.806 200.571C201.14 214.286 207.3 230.526 207.3 244C207.3 256.709 204.217 266.726 198.388 272.966Z" fill="#FF6D1F"/>
</g>
<defs>
<clipPath id="clip0_121_182">
<rect width="360" height="360" fill="white"/>
</clipPath>
</defs>
</svg>
